HIERARCHY
ROOT ui
{
	 OFFSET 0 0 0
	 CHANNELS 3 XPosition YPosition Z Position
	 EndSite
	 {
	 OFFSET 0 -1 0
	 }
}
ROOT li
{
	 OFFSET 0 0 0
	 CHANNELS 3 XPosition YPosition Z Position
	 EndSite
	 {
	 OFFSET 0 -1 0
	 }
}
ROOT ul
{
	 OFFSET 0 0 0
	 CHANNELS 3 XPosition YPosition Z Position
	 EndSite
	 {
	 OFFSET 0 -1 0
	 }
}
ROOT ll
{
	 OFFSET 0 0 0
	 CHANNELS 3 XPosition YPosition Z Position
	 EndSite
	 {
	 OFFSET 0 -1 0
	 }
}
ROOT tt
{
	 OFFSET 0 0 0
	 CHANNELS 3 XPosition YPosition Z Position
	 EndSite
	 {
	 OFFSET 0 -1 0
	 }
}
ROOT tb
{
	 OFFSET 0 0 0
	 CHANNELS 3 XPosition YPosition Z Position
	 EndSite
	 {
	 OFFSET 0 -1 0
	 }
}
ROOT td
{
	 OFFSET 0 0 0
	 CHANNELS 3 XPosition YPosition Z Position
	 EndSite
	 {
	 OFFSET 0 -1 0
	 }
}
ROOT v
{
	 OFFSET 0 0 0
	 CHANNELS 3 XPosition YPosition Z Position
	 EndSite
	 {
	 OFFSET 0 -1 0
	 }
}
ROOT bn
{
	 OFFSET 0 0 0
	 CHANNELS 3 XPosition YPosition Z Position
	 EndSite
	 {
	 OFFSET 0 -1 0
	 }
}
MOTION
Frames: 19
Frame Time: 0.002
0.004111238956451416	0.002291835069656372	0		0.6109541015625	-2.680707763671875	0		-0.8133687133789063	0.408517822265625	0		0.11013761138916016	-3.55012646484375	0		1.927441650390625	-1.04542041015625	0		3.2896953125	-0.3197058410644531	0		4.4566171875	0.02218280029296875	0		5.96337451171875	0.3491488037109375	0		-0.4511300659179687	5.84778564453125	0		
0.005885774135589599	-0.005925518035888672	0		0.5965635375976562	-2.684791748046875	0		-0.89140966796875	0.41427069091796875	0		0.06371459197998047	-3.55080859375	0		1.8897822265625	-0.9963397216796875	0		3.27992138671875	-0.286048828125	0		4.43364404296875	0.03589646530151367	0		5.96591015625	0.30120846557617187	0		-0.4566336669921875	5.862693359375	0		
0.0038584389686584473	0.0019008649587631227	0		0.6242354736328125	-2.68535302734375	0		-0.8135580444335937	0.40825457763671874	0		0.08443402099609375	-3.541249267578125	0		1.8572279052734375	-0.9403086547851562	0		3.267838623046875	-0.2813617248535156	0		4.4277685546875	0.05642470169067383	0		5.9616240234375	0.3174834899902344	0		-0.408118408203125	5.877984375	0		
0.0037609860897064207	0.001704725980758667	0		0.6160665893554688	-2.674503662109375	0		-0.8195676879882813	0.4131873474121094	0		0.05312305068969726	-3.537095458984375	0		1.846601318359375	-0.893518310546875	0		3.259099853515625	-0.24869758605957032	0		4.40869921875	0.05812013244628906	0		5.9526318359375	0.39102252197265625	0		-0.27354986572265627	5.8972783203125	0		
0.0036872529983520506	0.001508437991142273	0		0.61175390625	-2.679695068359375	0		-0.8287168579101563	0.4041514587402344	0		0.08173812866210937	-3.5436298828125	0		1.84512548828125	-0.8368202514648437	0		3.230230712890625	-0.2297808380126953	0		4.391873046875	0.07882015991210937	0		5.96306201171875	0.3447048034667969	0		-0.27322384643554687	5.8971005859375	0		
6.047289967536926E-4	-0.0016529929637908935	0		0.6016618041992188	-2.6698125	0		-0.8378328857421875	0.39611001586914063	0		0.05671127700805664	-3.5235419921875	0		1.8524913330078125	-0.7972113037109375	0		3.202507568359375	-0.20084788513183593	0		4.38691162109375	0.08541776275634766	0		5.963025390625	0.34374221801757815	0		-0.2729176940917969	5.8969208984375	0		
5.839629769325256E-4	-0.0018496739864349366	0		0.611386474609375	-2.680156005859375	0		-0.8378331909179687	0.3959564514160156	0		0.05234634017944336	-3.53769384765625	0		1.8000631103515625	-0.7428887329101562	0		3.19053564453125	-0.1960696258544922	0		4.36997802734375	0.09219327545166016	0		5.96021435546875	0.35505825805664065	0		-0.41169558715820315	5.89235986328125	0		
0.008567455291748047	-0.004140232086181641	0		0.602315673828125	-2.67727392578125	0		-0.8287157592773438	0.40368917846679686	0		0.08822428131103516	-3.536314697265625	0		1.8197049560546874	-0.686388671875	0		3.204037353515625	-0.1535575408935547	0		4.36422412109375	0.1118791732788086	0		5.98078466796875	0.3294705505371094	0		-0.3773694152832031	5.8977822265625	0		
0.0036622729301452636	7.209789752960205E-4	0		0.6064140625	-2.664538818359375	0		-0.8377595825195312	0.39562637329101563	0		0.033438762664794924	-3.51087060546875	0		1.798353271484375	-0.6323920288085938	0		3.17603466796875	-0.15653303527832033	0		4.3403828125	0.12181687164306641	0		5.95884130859375	0.3588177795410156	0		-0.25801458740234373	5.9072001953125	0		
0.00372561502456665	5.252100229263306E-4	0		0.6053882446289063	-2.666737548828125	0		-0.8427332153320313	0.3915104370117187	0		0.062342967987060544	-3.517407958984375	0		1.782966796875	-0.5844471435546875	0		3.15544873046875	-0.12656201171875	0		4.32453271484375	0.12870196533203124	0		5.9526015625	0.3860850524902344	0		-0.39301983642578125	5.88960009765625	0		
0.0057197918891906735	-0.007691038131713867	0		0.6034105834960938	-2.668916748046875	0		-0.8466852416992188	0.387378173828125	0		0.03242430877685547	-3.513248779296875	0		1.7655655517578126	-0.5404598999023438	0		3.143594970703125	-0.12166478729248047	0		4.3197177734375	0.13649777221679688	0		5.9523369140625	0.3181195373535156	0		-0.37872000122070315	5.89924755859375	0		
0.003924639940261841	1.430249959230423E-4	0		0.5535980224609375	-2.660521484375	0		-0.84252490234375	0.3911484375	0		0.06348162841796876	-3.515803466796875	0		1.76103759765625	-0.5096058349609375	0		3.151939697265625	-0.10197392272949218	0		4.318982421875	0.14928604125976563	0		5.9653115234375	0.32945404052734373	0		-0.4447121887207031	5.8868408203125	0		
0.004052555084228516	-3.917299956083298E-5	0		0.6086995849609375	-2.663351806640625	0		-0.8423970947265625	0.39096588134765625	0		0.0077680530548095705	-3.502326416015625	0		1.76567236328125	-0.4668374938964844	0		3.113211669921875	-0.08969599151611328	0		4.29626513671875	0.16237574768066407	0		5.94516552734375	0.4214179077148438	0		-0.36429742431640627	5.91071337890625	0		
0.004192362785339356	-2.1171499788761138E-4	0		0.6088633422851563	-2.663518798828125	0		-0.8463076782226563	0.3868331298828125	0		0.0678409423828125	-3.511205078125	0		1.7969437255859375	-0.456360107421875	0		3.122575439453125	-0.07094792175292969	0		4.2835107421875	0.171394287109375	0		5.95730615234375	0.4035670166015625	0		-0.3783511047363281	5.89870361328125	0		
0.004337458133697509	-3.7154901027679443E-4	0		0.6070335693359376	-2.66564404296875	0		-0.8552630615234375	0.3787641906738281	0		0.00814827537536621	-3.50265869140625	0		1.8013203125	-0.43753561401367186	0		3.09579443359375	-0.0647337875366211	0		4.2787353515625	0.17837078857421876	0		5.9530380859375	0.3845726318359375	0		-0.24505224609375	5.919970703125	0		
0.004480183124542236	-5.155760049819946E-4	0		0.6072508544921875	-2.665771240234375	0		-0.8601775512695312	0.37465509033203126	0		0.06829093933105469	-3.511505859375	0		1.799780517578125	-0.41160772705078125	0		3.08104541015625	-0.055615997314453124	0		4.27089697265625	0.18044000244140626	0		5.96082666015625	0.3515216979980469	0		-0.3803121643066406	5.9004052734375	0		
0.004611790180206299	-6.406069993972779E-4	0		0.5835433959960937	-2.660593017578125	0		-0.8600601196289063	0.37449734497070314	0		0.00966464328765869	-3.501939208984375	0		1.8308787841796874	-0.416027099609375	0		3.07516796875	-0.056554412841796874	0		4.2561630859375	0.19265095520019532	0		5.96160986328125	0.34648748779296873	0		-0.3764508361816406	5.89621923828125	0		
-0.0651785659790039	0.00807130241394043	0		0.6148262939453125	-2.65702978515625	0		-0.84908349609375	0.364225830078125	0		0.04699888610839844	-3.49747314453125	0		1.7329354248046875	-0.42190106201171873	0		3.0785849609375	-0.03054769706726074	0		4.2603349609375	0.19870364379882813	0		5.9613349609375	0.4212084045410156	0		-0.3625045166015625	5.9059345703125	0		
0.011890329360961915	0.006096916198730469	0		0.6150648193359375	-2.65707275390625	0		-0.859901611328125	0.3742256774902344	0		0.018345466613769533	-3.492212890625	0		1.72999951171875	-0.42584494018554686	0		3.034640869140625	-0.032939289093017576	0		4.2425849609375	0.2140772705078125	0		5.96906787109375	0.38511956787109375	0		-0.23245286560058595	5.93132666015625	0		
